<?xml version="1.0" standalone="no"?>
<!DOCTYPE svg PUBLIC "-//W3C//DTD SVG 20010904//EN"
 "http://www.w3.org/TR/2001/REC-SVG-20010904/DTD/svg10.dtd">
<svg version="1.0" xmlns="http://www.w3.org/2000/svg"
 width="1350.000000pt" height="1350.000000pt" viewBox="0 0 1350.000000 1350.000000"
 preserveAspectRatio="xMidYMid meet">
<metadata>
Created by potrace 1.14, written by Peter Selinger 2001-2017
</metadata>
<g transform="translate(0.000000,1350.000000) scale(0.100000,-0.100000)"
fill="#000000" stroke="none">
<path d="M6439 12175 c-2 -2 -58 -6 -124 -10 -66 -4 -133 -9 -150 -10 -16 -2
-66 -6 -109 -10 -44 -4 -87 -8 -95 -10 -9 -1 -57 -8 -106 -14 -50 -7 -97 -13
-105 -15 -8 -1 -37 -6 -65 -10 -103 -16 -170 -28 -315 -57 -100 -20 -443 -107
-545 -139 -55 -17 -109 -33 -120 -35 -24 -5 -270 -92 -370 -130 -156 -59 -388
-161 -550 -241 -168 -83 -210 -105 -375 -196 -184 -102 -514 -319 -710 -467
-78 -59 -330 -261 -356 -286 -6 -5 -49 -44 -95 -85 -204 -181 -503 -491 -693
-720 -117 -140 -104 -124 -222 -284 -58 -77 -108 -146 -112 -151 -27 -34 -211
-320 -274 -425 -129 -214 -288 -523 -375 -724 -19 -44 -40 -94 -48 -110 -106
-239 -244 -656 -331 -1001 -5 -20 -46 -201 -50 -220 -2 -11 -9 -45 -16 -75 -6
-30 -12 -59 -13 -65 -2 -21 -18 -121 -22 -140 -6 -31 -21 -125 -28 -175 -3
-25 -8 -63 -11 -85 -3 -22 -7 -51 -9 -65 -2 -14 -7 -61 -11 -105 -3 -44 -8
-91 -9 -105 -20 -167 -27 -788 -12 -1000 7 -101 10 -138 21 -263 9 -92 31
-270 42 -329 1 -9 6 -38 10 -65 3 -26 8 -57 10 -68 3 -11 7 -36 10 -55 3 -19
9 -53 14 -75 5 -22 12 -56 15 -75 12 -69 46 -217 76 -330 17 -63 32 -122 34
-130 13 -59 127 -414 155 -484 5 -11 25 -66 46 -121 20 -55 45 -118 55 -141
10 -22 27 -63 37 -90 43 -107 180 -390 274 -566 101 -188 352 -592 430 -693 5
-5 38 -50 74 -100 37 -49 70 -94 74 -99 5 -4 16 27 25 70 176 839 341 1145
709 1314 131 60 229 82 376 82 211 0 346 -38 720 -202 202 -89 280 -112 334
-100 42 9 110 47 238 130 194 127 318 166 492 157 55 -3 112 -8 126 -11 14 -3
39 -8 55 -12 55 -10 160 -46 176 -60 8 -8 20 -14 25 -14 11 0 91 -74 126 -117
l26 -33 30 53 c90 160 291 251 667 302 90 12 113 15 190 20 225 16 323 54 441
170 67 66 154 182 154 204 0 6 5 11 10 11 6 0 10 4 10 8 0 5 23 51 51 103 28
52 65 119 81 149 88 161 205 294 318 360 152 89 340 111 510 57 149 -46 353
-155 555 -297 84 -59 225 -162 252 -185 14 -12 23 -19 83 -65 25 -19 54 -42
65 -52 11 -9 67 -55 125 -103 58 -48 116 -97 130 -108 14 -12 55 -47 90 -77
36 -30 70 -59 76 -65 6 -5 33 -28 59 -50 27 -22 53 -45 59 -50 6 -6 52 -44
101 -85 50 -41 95 -79 101 -85 6 -5 29 -25 52 -43 22 -18 53 -45 69 -58 45
-40 323 -247 378 -282 28 -17 86 -48 130 -68 68 -32 91 -38 155 -39 157 -3
322 38 419 105 91 61 126 61 301 -2 85 -30 639 -248 695 -273 41 -18 286 -109
360 -133 79 -26 279 -72 420 -96 65 -12 188 -40 310 -71 156 -39 155 -39 155
-26 0 5 17 36 39 68 124 188 342 593 451 838 123 278 290 734 325 885 2 8 19
74 39 145 20 72 47 184 62 250 33 152 31 146 38 190 4 20 8 40 10 44 3 3 7 27
11 51 3 25 10 70 15 100 5 30 12 73 15 95 4 22 8 51 10 65 2 14 7 48 10 75 3
28 8 61 10 75 2 14 7 57 10 95 3 39 8 84 10 100 20 173 27 787 12 1040 -5 71
-10 132 -11 135 -2 3 -6 43 -10 90 -4 47 -8 96 -10 110 -3 14 -7 50 -11 81 -3
31 -8 67 -10 80 -3 13 -8 44 -11 69 -15 113 -22 149 -60 340 -37 181 -87 383
-139 560 -26 85 -48 160 -49 165 -2 6 -6 17 -9 25 -3 8 -17 51 -32 95 -150
443 -400 967 -658 1380 -50 80 -183 281 -199 300 -4 5 -49 66 -100 135 -77
106 -228 298 -263 336 -5 6 -21 24 -34 40 -89 106 -190 214 -361 384 -189 190
-253 250 -356 337 -27 23 -60 51 -74 63 -14 12 -34 29 -45 38 -47 41 -297 232
-375 288 -178 127 -518 344 -540 344 -6 0 -10 4 -10 9 0 5 -8 11 -17 14 -10 3
-58 29 -108 57 -342 193 -835 402 -1253 531 -219 68 -533 147 -697 175 -51 9
-79 14 -105 19 -42 9 -192 33 -245 40 -27 3 -61 8 -75 10 -23 3 -97 11 -180
20 -19 2 -71 7 -115 10 -44 4 -96 9 -115 11 -41 6 -766 14 -771 9z"/>
</g>
</svg>
